<?xml version="1.0" encoding="utf-8"?>
<!-- Generator: Adobe Illustrator 15.0.0, SVG Export Plug-In . SVG Version: 6.00 Build 0)  -->
<!DOCTYPE svg PUBLIC "-//W3C//DTD SVG 1.1//EN" "http://www.w3.org/Graphics/SVG/1.1/DTD/svg11.dtd">
<svg version="1.1" id="图层_1" xmlns="http://www.w3.org/2000/svg" xmlns:xlink="http://www.w3.org/1999/xlink" x="0px" y="0px"
	 width="255.121px" height="255.121px" viewBox="0 0 255.121 255.121" enable-background="new 0 0 255.121 255.121"
	 xml:space="preserve">
<path fill="#16A085" d="M255.118,210.842c0,24.453-19.823,44.274-44.276,44.274H44.276C19.824,255.116,0,235.295,0,210.842V44.274
	C0,19.822,19.824,0,44.276,0h166.566c24.453,0,44.276,19.822,44.276,44.274V210.842z"/>
<g>
	<path fill="#FFFFFF" d="M166.032,163.771c0.63-1.556,0.732-3.271,0.325-4.882c-0.337-1.325-1.014-2.58-2.051-3.617l-30.679-30.662
		c-0.175-0.174-0.356-0.337-0.544-0.492c-0.155-0.188-0.32-0.373-0.497-0.551c-3.064-3.062-8.027-3.063-11.09,0.001l-30.683,30.663
		c-3.063,3.063-3.062,8.027,0.001,11.089c1.531,1.532,3.538,2.297,5.545,2.297s4.014-0.765,5.545-2.297l25.136-25.135l20.633,20.633
		l-25.137,25.138c-3.062,3.061-3.062,8.027,0.001,11.089c1.531,1.53,3.538,2.294,5.546,2.294c2.007,0,4.013-0.764,5.545-2.294
		l30.676-30.678c0.002-0.002,0.003-0.004,0.003-0.006C165.073,165.6,165.647,164.716,166.032,163.771z"/>
	<path fill="#FFFFFF" d="M207.055,119.685c0-18.646-14.126-34.05-32.849-36.667c-8.985-16.676-26.864-27.245-46.646-27.245
		c-19.782,0-37.663,10.569-46.646,27.245c-18.724,2.617-32.851,18.021-32.851,36.667c0,10.37,4.457,19.747,11.609,26.479
		c1.241,1.646,3.206,2.717,5.426,2.717c3.752,0,6.794-3.043,6.794-6.796c0-1.754-0.669-3.348-1.76-4.552v-0.03
		c-0.044-0.036-0.084-0.073-0.128-0.11c-0.279-0.291-0.585-0.559-0.914-0.798c-4.673-4.293-7.586-10.284-7.586-16.909
		c0-12.729,10.557-23.095,24.034-23.597l4.213-0.156l1.692-3.861c6.084-13.884,20.261-22.854,36.116-22.854
		s30.029,8.97,36.114,22.854l1.692,3.861l4.214,0.156c13.477,0.502,24.03,10.867,24.03,23.597c0,6.629-2.913,12.622-7.591,16.916
		c-1.912,1.201-3.185,3.321-3.185,5.745c0,3.746,3.037,6.786,6.786,6.786c1.981,0,3.758-0.855,4.999-2.208
		C202.257,140.145,207.055,130.449,207.055,119.685z"/>
</g>
</svg>
